<svg height="733.3739" width="208.24304" xmlns="http://www.w3.org/2000/svg"><g transform="translate(-478.18097 -222.48596)"><path d="m543.92859 660.64789h75.294067v256.99677h-75.294067z" fill="#ceffcb"/><path d="m543.92859 224.50504h75.293983v439.13965h-75.293983z" fill="#dcdcdc"/><path d="m545.71429 255.75504h8.75v14.642858h-8.75z" fill="#f79526"/><path d="m478.18097 634.06909h67.175171v28.536806h-67.175171z" fill="#dcdcdc"/><path d="m478.18097 249.16463h67.175171v28.536806h-67.175171z" fill="#facc99"/><text font-family="Arial" font-size="12" letter-spacing="0" word-spacing="0" x="537.38739" y="261.83408"><tspan font-family="Arial" font-size="10" font-weight="bold" text-anchor="end" x="537.38739" y="261.83408">3V3</tspan><tspan fill="#808080" font-family="Arial" font-size="8" font-weight="bold" text-anchor="end" x="537.38739" y="272.34058">Power</tspan></text><path d="m478.18097 281.23999h67.175171v28.536806h-67.175171z" fill="#fdc9ff"/><text font-family="Arial" font-size="12" letter-spacing="0" word-spacing="0" x="537.38739" y="293.8941"><tspan font-family="Arial" font-size="10" font-weight="bold" text-anchor="end" x="537.38739" y="293.8941">GPIO2</tspan><tspan fill="#808080" font-family="Arial" font-size="8" font-weight="bold" text-anchor="end" x="537.38739" y="304.4006">SDA I²C</tspan></text><path d="m478.18097 313.31537h67.175171v28.536806h-67.175171z" fill="#fdc9ff"/><text font-family="Arial" font-size="12" letter-spacing="0" word-spacing="0" x="537.38739" y="325.95413"><tspan font-family="Arial" font-size="10" font-weight="bold" text-anchor="end" x="537.38739" y="325.95413">GPIO3</tspan><tspan fill="#808080" font-family="Arial" font-size="8" font-weight="bold" text-anchor="end" x="537.38739" y="336.46063">SCL I²C</tspan></text><path d="m478.18097 345.39075h67.175171v28.536806h-67.175171z" fill="#ceffcb"/><text font-family="Arial" font-size="12" letter-spacing="0" word-spacing="0" x="537.38739" y="358.01416"><tspan font-family="Arial" font-size="10" font-weight="bold" text-anchor="end" x="537.38739" y="358.01416">GPIO4</tspan></text><path d="m478.18097 377.46609h67.175171v28.536806h-67.175171z" fill="#dcdcdc"/><text font-family="Arial" font-size="12" letter-spacing="0" word-spacing="0" x="537.38739" y="390.07419"><tspan font-family="Arial" font-size="10" font-weight="bold" text-anchor="end" x="537.38739" y="390.07419">Ground</tspan></text><path d="m478.18097 409.54147h67.175171v28.536806h-67.175171z" fill="#ceffcb"/><text font-family="Arial" font-size="12" letter-spacing="0" word-spacing="0" x="537.38739" y="422.13422"><tspan font-family="Arial" font-size="10" font-weight="bold" text-anchor="end" x="537.38739" y="422.13422">GPIO17</tspan><tspan fill="#808080" x="537.38739" y="434.63422"/></text><path d="m478.18097 441.61685h67.175171v28.536806h-67.175171z" fill="#ceffcb"/><text font-family="Arial" font-size="12" letter-spacing="0" word-spacing="0" x="537.38739" y="454.19424"><tspan font-family="Arial" font-size="10" font-weight="bold" text-anchor="end" x="537.38739" y="454.19424">GPIO27</tspan><tspan fill="#808080" x="537.38739" y="466.69424"/></text><path d="m478.18097 473.69223h67.175171v28.536806h-67.175171z" fill="#ceffcb"/><text font-family="Arial" font-size="12" letter-spacing="0" word-spacing="0" x="537.38739" y="486.25424"><tspan font-family="Arial" font-size="10" font-weight="bold" text-anchor="end" x="537.38739" y="486.25424">GPIO22</tspan><tspan fill="#808080" x="537.38739" y="498.75424"/></text><path d="m478.18097 505.76758h67.175171v28.536806h-67.175171z" fill="#facc99"/><text font-family="Arial" font-size="12" letter-spacing="0" word-spacing="0" x="537.38739" y="518.31427"><tspan font-family="Arial" font-size="10" font-weight="bold" text-anchor="end" x="537.38739" y="518.31427">3V3</tspan><tspan fill="#808080" font-family="Arial" font-size="8" font-weight="bold" text-anchor="end" x="537.38739" y="528.8208">Power</tspan></text><path d="m478.18097 537.84296h67.175171v28.536806h-67.175171z" fill="#d0e6f4"/><text font-family="Arial" font-size="12" letter-spacing="0" word-spacing="0" x="537.38739" y="550.37433"><tspan font-family="Arial" font-size="10" font-weight="bold" text-anchor="end" x="537.38739" y="550.37433">GPIO10</tspan><tspan fill="#808080" font-family="Arial" font-size="8" font-weight="bold" text-anchor="end" x="537.38739" y="560.88086">SPI MOSI</tspan></text><path d="m478.18097 569.91833h67.175171v28.536806h-67.175171z" fill="#d0e6f4"/><text font-family="Arial" font-size="12" letter-spacing="0" word-spacing="0" x="537.38739" y="582.43433"><tspan font-family="Arial" font-size="10" font-weight="bold" text-anchor="end" x="537.38739" y="582.43433">GPIO9</tspan><tspan fill="#808080" font-family="Arial" font-size="8" font-weight="bold" text-anchor="end" x="537.38739" y="592.94086">SPI MISO</tspan></text><path d="m478.18097 601.99371h67.175171v28.536806h-67.175171z" fill="#d0e6f4"/><text font-family="Arial" font-size="12" letter-spacing="0" word-spacing="0" x="537.38739" y="614.49438"><tspan font-family="Arial" font-size="10" font-weight="bold" text-anchor="end" x="537.38739" y="614.49438">GPIO11</tspan><tspan fill="#808080" font-family="Arial" font-size="8" font-weight="bold" text-anchor="end" x="537.38739" y="625.00092">SPI SCLK</tspan></text><text font-family="Arial" font-size="12" letter-spacing="0" word-spacing="0" x="537.38739" y="646.55438"><tspan font-family="Arial" font-size="10" font-weight="bold" text-anchor="end" x="537.38739" y="646.55438">Ground</tspan></text><path d="m478.18097 666.14441h67.175171v28.536806h-67.175171z" fill="#fdffcb"/><text font-family="Arial" font-size="12" letter-spacing="0" word-spacing="0" x="537.38739" y="678.61444"><tspan font-family="Arial" font-size="10" font-weight="bold" text-anchor="end" x="537.38739" y="678.61444">ID SD</tspan><tspan fill="#808080" font-family="Arial" font-size="8" font-weight="bold" text-anchor="end" x="537.38739" y="689.12097">I²C ID</tspan></text><path d="m478.18097 698.21979h67.175171v28.536806h-67.175171z" fill="#ceffcb"/><text font-family="Arial" font-size="12" letter-spacing="0" word-spacing="0" x="537.38739" y="710.67444"><tspan font-family="Arial" font-size="10" font-weight="bold" text-anchor="end" x="537.38739" y="710.67444">GPIO5</tspan><tspan fill="#808080" x="537.38739" y="723.17444"/></text><path d="m478.18097 730.29517h67.175171v28.536806h-67.175171z" fill="#ceffcb"/><text font-family="Arial" font-size="12" letter-spacing="0" word-spacing="0" x="537.38739" y="742.73444"><tspan font-family="Arial" font-size="10" font-weight="bold" text-anchor="end" x="537.38739" y="742.73444">GPIO6</tspan><tspan fill="#808080" x="537.38739" y="755.23444"/></text><path d="m478.18097 762.37054h67.175171v28.536806h-67.175171z" fill="#ceffcb"/><text font-family="Arial" font-size="12" letter-spacing="0" word-spacing="0" x="537.38739" y="774.79449"><tspan font-family="Arial" font-size="10" font-weight="bold" text-anchor="end" x="537.38739" y="774.79449">GPIO13</tspan><tspan fill="#808080" x="537.38739" y="787.29449"/></text><path d="m478.18097 794.44592h67.175171v28.536806h-67.175171z" fill="#ceffcb"/><text font-family="Arial" font-size="12" letter-spacing="0" word-spacing="0" x="537.38739" y="806.85455"><tspan font-family="Arial" font-size="10" font-weight="bold" text-anchor="end" x="537.38739" y="806.85455">GPIO19</tspan><tspan fill="#808080" x="537.38739" y="819.35455"/></text><path d="m478.18097 826.5213h67.175171v28.536806h-67.175171z" fill="#ceffcb"/><text font-family="Arial" font-size="12" letter-spacing="0" word-spacing="0" x="537.38739" y="838.91455"><tspan font-family="Arial" font-size="10" font-weight="bold" text-anchor="end" x="537.38739" y="838.91455">GPIO26</tspan><tspan fill="#808080" x="537.38739" y="851.41455"/></text><path d="m478.18097 858.59668h67.175171v28.536806h-67.175171z" fill="#dcdcdc"/><text font-family="Arial" font-size="12" letter-spacing="0" word-spacing="0" x="537.38739" y="870.97455"><tspan font-family="Arial" font-size="10" font-weight="bold" text-anchor="end" x="537.38739" y="870.97455">Ground</tspan></text><path d="m619.24884 249.16463h67.175171v28.536806h-67.175171z" fill="#facbcb"/><text font-family="Arial" font-size="10" font-weight="bold" letter-spacing="0" word-spacing="0" x="626.5799" y="261.83408"><tspan font-family="Arial" font-size="10" font-weight="bold" x="626.5799" y="261.83408">5V</tspan><tspan fill="#808080" font-family="Arial" font-size="8" font-weight="bold" x="626.5799" y="272.34058">Power</tspan></text><path d="m619.24884 281.23999h67.175171v28.536806h-67.175171z" fill="#facbcb"/><text font-family="Arial" font-size="10" font-weight="bold" letter-spacing="0" word-spacing="0" x="626.5799" y="293.8941"><tspan font-family="Arial" font-size="10" font-weight="bold" x="626.5799" y="293.8941">5V</tspan><tspan fill="#808080" font-family="Arial" font-size="8" font-weight="bold" x="626.5799" y="304.4006">Power</tspan></text><path d="m619.24884 313.31537h67.175171v28.536806h-67.175171z" fill="#dcdcdc"/><text font-family="Arial" font-size="10" font-weight="bold" letter-spacing="0" word-spacing="0" x="626.5799" y="325.95413"><tspan font-family="Arial" font-size="10" font-weight="bold" x="626.5799" y="325.95413">Ground</tspan></text><path d="m619.24884 345.39075h67.175171v28.536806h-67.175171z" fill="#e5e3fe"/><text font-family="Arial" font-size="10" font-weight="bold" letter-spacing="0" word-spacing="0" x="626.5799" y="358.01416"><tspan font-family="Arial" font-size="10" font-weight="bold" x="626.5799" y="358.01416">GPIO14</tspan><tspan fill="#808080" font-family="Arial" font-size="8" font-weight="bold" x="626.5799" y="368.52066">UART0 TXD</tspan></text><path d="m619.24884 377.46609h67.175171v28.536806h-67.175171z" fill="#e5e3fe"/><text font-family="Arial" font-size="10" font-weight="bold" letter-spacing="0" word-spacing="0" x="626.5799" y="390.07419"><tspan font-family="Arial" font-size="10" font-weight="bold" x="626.5799" y="390.07419">GPIO15</tspan><tspan fill="#808080" font-family="Arial" font-size="8" font-weight="bold" x="626.5799" y="400.58069">UART0 RXD</tspan></text><path d="m619.24884 409.54147h67.175171v28.536806h-67.175171z" fill="#ceffcb"/><text font-family="Arial" font-size="10" font-weight="bold" letter-spacing="0" word-spacing="0" x="626.5799" y="422.13422"><tspan font-family="Arial" font-size="10" font-weight="bold" x="626.5799" y="422.13422">GPIO18</tspan><tspan fill="#808080" x="626.5799" y="434.63422"/></text><path d="m619.24884 441.61685h67.175171v28.536806h-67.175171z" fill="#dcdcdc"/><text font-family="Arial" font-size="10" font-weight="bold" letter-spacing="0" word-spacing="0" x="626.5799" y="454.19424"><tspan font-family="Arial" font-size="10" font-weight="bold" x="626.5799" y="454.19424">Ground</tspan><tspan fill="#808080" x="626.5799" y="466.69424"/></text><path d="m619.24884 473.69223h67.175171v28.536806h-67.175171z" fill="#ceffcb"/><text font-family="Arial" font-size="10" font-weight="bold" letter-spacing="0" word-spacing="0" x="626.5799" y="486.25424"><tspan font-family="Arial" font-size="10" font-weight="bold" x="626.5799" y="486.25424">GPIO23</tspan></text><path d="m619.24884 505.76758h67.175171v28.536806h-67.175171z" fill="#ceffcb"/><text font-family="Arial" font-size="10" font-weight="bold" letter-spacing="0" word-spacing="0" x="626.5799" y="518.31427"><tspan font-family="Arial" font-size="10" font-weight="bold" x="626.5799" y="518.31427">GPIO24</tspan></text><path d="m619.24884 537.84296h67.175171v28.536806h-67.175171z" fill="#dcdcdc"/><text font-family="Arial" font-size="10" font-weight="bold" letter-spacing="0" word-spacing="0" x="626.5799" y="550.37433"><tspan font-family="Arial" font-size="10" font-weight="bold" x="626.5799" y="550.37433">Ground</tspan></text><path d="m619.24884 569.91833h67.175171v28.536806h-67.175171z" fill="#ceffcb"/><text font-family="Arial" font-size="10" font-weight="bold" letter-spacing="0" word-spacing="0" x="626.5799" y="582.43433"><tspan font-family="Arial" font-size="10" font-weight="bold" x="626.5799" y="582.43433">GPIO25</tspan><tspan fill="#808080" x="626.5799" y="594.93433"/></text><path d="m619.24884 601.99371h67.175171v28.536806h-67.175171z" fill="#d0e6f4"/><text font-family="Arial" font-size="10" font-weight="bold" letter-spacing="0" word-spacing="0" x="626.5799" y="614.49438"><tspan font-family="Arial" font-size="10" font-weight="bold" x="626.5799" y="614.49438">GPIO8</tspan><tspan fill="#808080" font-family="Arial" font-size="8" font-weight="bold" x="626.5799" y="625.00092">SPI CE0</tspan></text><path d="m619.24884 634.06909h67.175171v28.536806h-67.175171z" fill="#d0e6f4"/><text font-family="Arial" font-size="10" font-weight="bold" letter-spacing="0" word-spacing="0" x="626.5799" y="646.55438"><tspan font-family="Arial" font-size="10" font-weight="bold" x="626.5799" y="646.55438">GPIO7</tspan><tspan fill="#808080" font-family="Arial" font-size="8" font-weight="bold" x="626.5799" y="657.06091">SPI CE1</tspan></text><path d="m619.24884 666.14441h67.175171v28.536806h-67.175171z" fill="#fdffcb"/><text font-family="Arial" font-size="10" font-weight="bold" letter-spacing="0" word-spacing="0" x="626.5799" y="678.61444"><tspan font-family="Arial" font-size="10" font-weight="bold" x="626.5799" y="678.61444">ID SC</tspan><tspan fill="#808080" font-family="Arial" font-size="8" font-weight="bold" x="626.5799" y="689.12097">I²C ID</tspan></text><path d="m619.24884 698.21979h67.175171v28.536806h-67.175171z" fill="#dcdcdc"/><text font-family="Arial" font-size="10" font-weight="bold" letter-spacing="0" word-spacing="0" x="626.5799" y="710.67444"><tspan font-family="Arial" font-size="10" font-weight="bold" x="626.5799" y="710.67444">Ground</tspan></text><path d="m619.24884 730.29517h67.175171v28.536806h-67.175171z" fill="#ceffcb"/><text font-family="Arial" font-size="10" font-weight="bold" letter-spacing="0" word-spacing="0" x="626.5799" y="742.73444"><tspan font-family="Arial" font-size="10" font-weight="bold" x="626.5799" y="742.73444">GPIO12</tspan><tspan fill="#808080" x="626.5799" y="755.23444"/></text><path d="m619.24884 762.37054h67.175171v28.536806h-67.175171z" fill="#dcdcdc"/><text font-family="Arial" font-size="10" font-weight="bold" letter-spacing="0" word-spacing="0" x="626.5799" y="774.79449"><tspan font-family="Arial" font-size="10" font-weight="bold" x="626.5799" y="774.79449">Ground</tspan><tspan fill="#808080" x="626.5799" y="787.29449"/></text><path d="m619.24884 794.44592h67.175171v28.536806h-67.175171z" fill="#ceffcb"/><text font-family="Arial" font-size="10" font-weight="bold" letter-spacing="0" word-spacing="0" x="626.5799" y="806.85449"><tspan font-family="Arial" font-size="10" font-weight="bold" x="626.5799" y="806.85449">GPIO16</tspan><tspan fill="#808080" x="626.5799" y="819.35449"/></text><path d="m619.24884 826.5213h67.175171v28.536806h-67.175171z" fill="#ceffcb"/><text font-family="Arial" font-size="10" font-weight="bold" letter-spacing="0" word-spacing="0" x="626.5799" y="838.91455"><tspan font-family="Arial" font-size="10" font-weight="bold" x="626.5799" y="838.91455">GPIO20</tspan><tspan fill="#808080" x="626.5799" y="851.41455"/></text><path d="m619.24884 858.59668h67.175171v28.536806h-67.175171z" fill="#ceffcb"/><text font-family="Arial" font-size="10" font-weight="bold" letter-spacing="0" word-spacing="0" x="626.5799" y="870.97455"><tspan font-family="Arial" font-size="10" font-weight="bold" x="626.5799" y="870.97455">GPIO21</tspan><tspan fill="#808080" x="626.5799" y="883.47455"/></text><path d="m544.70679 224.98596h74.373108v693.383h-74.373108z" fill="none" stroke="#f00" stroke-width="5"/><path d="m597.45667 275.21933a12.456672 12.456672 0 0 1 -12.45667 12.45667 12.456672 12.456672 0 0 1 -12.45667-12.45667 12.456672 12.456672 0 0 1 12.45667-12.45667 12.456672 12.456672 0 0 1 12.45667 12.45667z" fill="#fff" transform="translate(-18.928571 -12.571428)"/><path d="m597.45667 275.21933a12.456672 12.456672 0 0 1 -12.45667 12.45667 12.456672 12.456672 0 0 1 -12.45667-12.45667 12.456672 12.456672 0 0 1 12.45667-12.45667 12.456672 12.456672 0 0 1 12.45667 12.45667z" fill="#fff" transform="translate(-18.928571 19.492044)"/><path d="m597.45667 275.21933a12.456672 12.456672 0 0 1 -12.45667 12.45667 12.456672 12.456672 0 0 1 -12.45667-12.45667 12.456672 12.456672 0 0 1 12.45667-12.45667 12.456672 12.456672 0 0 1 12.45667 12.45667z" fill="#fff" transform="translate(-18.928571 51.555517)"/><path d="m597.45667 275.21933a12.456672 12.456672 0 0 1 -12.45667 12.45667 12.456672 12.456672 0 0 1 -12.45667-12.45667 12.456672 12.456672 0 0 1 12.45667-12.45667 12.456672 12.456672 0 0 1 12.45667 12.45667z" fill="#fff" transform="translate(-18.928571 83.618989)"/><path d="m597.45667 275.21933a12.456672 12.456672 0 0 1 -12.45667 12.45667 12.456672 12.456672 0 0 1 -12.45667-12.45667 12.456672 12.456672 0 0 1 12.45667-12.45667 12.456672 12.456672 0 0 1 12.45667 12.45667z" transform="translate(-18.928571 115.68246)"/><path d="m597.45667 275.21933a12.456672 12.456672 0 0 1 -12.45667 12.45667 12.456672 12.456672 0 0 1 -12.45667-12.45667 12.456672 12.456672 0 0 1 12.45667-12.45667 12.456672 12.456672 0 0 1 12.45667 12.45667z" fill="#fff" transform="translate(-18.928571 147.74593)"/><path d="m597.45667 275.21933a12.456672 12.456672 0 0 1 -12.45667 12.45667 12.456672 12.456672 0 0 1 -12.45667-12.45667 12.456672 12.456672 0 0 1 12.45667-12.45667 12.456672 12.456672 0 0 1 12.45667 12.45667z" fill="#fff" transform="translate(-18.928571 179.8094)"/><path d="m597.45667 275.21933a12.456672 12.456672 0 0 1 -12.45667 12.45667 12.456672 12.456672 0 0 1 -12.45667-12.45667 12.456672 12.456672 0 0 1 12.45667-12.45667 12.456672 12.456672 0 0 1 12.45667 12.45667z" fill="#fff" transform="translate(-18.928571 211.87288)"/><path d="m597.45667 275.21933a12.456672 12.456672 0 0 1 -12.45667 12.45667 12.456672 12.456672 0 0 1 -12.45667-12.45667 12.456672 12.456672 0 0 1 12.45667-12.45667 12.456672 12.456672 0 0 1 12.45667 12.45667z" fill="#fff" transform="translate(-18.928571 243.93635)"/><path d="m597.45667 275.21933a12.456672 12.456672 0 0 1 -12.45667 12.45667 12.456672 12.456672 0 0 1 -12.45667-12.45667 12.456672 12.456672 0 0 1 12.45667-12.45667 12.456672 12.456672 0 0 1 12.45667 12.45667z" fill="#fff" transform="translate(-18.928571 275.99982)"/><path d="m597.45667 275.21933a12.456672 12.456672 0 0 1 -12.45667 12.45667 12.456672 12.456672 0 0 1 -12.45667-12.45667 12.456672 12.456672 0 0 1 12.45667-12.45667 12.456672 12.456672 0 0 1 12.45667 12.45667z" fill="#fff" transform="translate(-18.928571 308.06329)"/><path d="m597.45667 275.21933a12.456672 12.456672 0 0 1 -12.45667 12.45667 12.456672 12.456672 0 0 1 -12.45667-12.45667 12.456672 12.456672 0 0 1 12.45667-12.45667 12.456672 12.456672 0 0 1 12.45667 12.45667z" fill="#fff" transform="translate(-18.928571 340.12677)"/><path d="m597.45667 275.21933a12.456672 12.456672 0 0 1 -12.45667 12.45667 12.456672 12.456672 0 0 1 -12.45667-12.45667 12.456672 12.456672 0 0 1 12.45667-12.45667 12.456672 12.456672 0 0 1 12.45667 12.45667z" transform="translate(-18.928571 372.19024)"/><path d="m597.45667 275.21933a12.456672 12.456672 0 0 1 -12.45667 12.45667 12.456672 12.456672 0 0 1 -12.45667-12.45667 12.456672 12.456672 0 0 1 12.45667-12.45667 12.456672 12.456672 0 0 1 12.45667 12.45667z" fill="#fff" transform="translate(-18.676033 404.25371)"/><path d="m597.45667 275.21933a12.456672 12.456672 0 0 1 -12.45667 12.45667 12.456672 12.456672 0 0 1 -12.45667-12.45667 12.456672 12.456672 0 0 1 12.45667-12.45667 12.456672 12.456672 0 0 1 12.45667 12.45667z" fill="#fff" transform="translate(-18.928571 436.31718)"/><path d="m597.45667 275.21933a12.456672 12.456672 0 0 1 -12.45667 12.45667 12.456672 12.456672 0 0 1 -12.45667-12.45667 12.456672 12.456672 0 0 1 12.45667-12.45667 12.456672 12.456672 0 0 1 12.45667 12.45667z" fill="#fff" transform="translate(-18.928571 468.38066)"/><path d="m597.45667 275.21933a12.456672 12.456672 0 0 1 -12.45667 12.45667 12.456672 12.456672 0 0 1 -12.45667-12.45667 12.456672 12.456672 0 0 1 12.45667-12.45667 12.456672 12.456672 0 0 1 12.45667 12.45667z" fill="#fff" transform="translate(-18.928571 500.44413)"/><path d="m597.45667 275.21933a12.456672 12.456672 0 0 1 -12.45667 12.45667 12.456672 12.456672 0 0 1 -12.45667-12.45667 12.456672 12.456672 0 0 1 12.45667-12.45667 12.456672 12.456672 0 0 1 12.45667 12.45667z" fill="#fff" transform="translate(-18.928571 532.5076)"/><path d="m597.45667 275.21933a12.456672 12.456672 0 0 1 -12.45667 12.45667 12.456672 12.456672 0 0 1 -12.45667-12.45667 12.456672 12.456672 0 0 1 12.45667-12.45667 12.456672 12.456672 0 0 1 12.45667 12.45667z" fill="#fff" transform="translate(-18.928571 564.57107)"/><path d="m597.45667 275.21933a12.456672 12.456672 0 0 1 -12.45667 12.45667 12.456672 12.456672 0 0 1 -12.45667-12.45667 12.456672 12.456672 0 0 1 12.45667-12.45667 12.456672 12.456672 0 0 1 12.45667 12.45667z" transform="translate(-18.928571 596.63455)"/><path d="m597.45667 275.21933a12.456672 12.456672 0 0 1 -12.45667 12.45667 12.456672 12.456672 0 0 1 -12.45667-12.45667 12.456672 12.456672 0 0 1 12.45667-12.45667 12.456672 12.456672 0 0 1 12.45667 12.45667z" fill="#fff" transform="translate(13.134901 -12.571428)"/><path d="m597.45667 275.21933a12.456672 12.456672 0 0 1 -12.45667 12.45667 12.456672 12.456672 0 0 1 -12.45667-12.45667 12.456672 12.456672 0 0 1 12.45667-12.45667 12.456672 12.456672 0 0 1 12.45667 12.45667z" fill="#fff" transform="translate(13.134901 19.492044)"/><path d="m597.45667 275.21933a12.456672 12.456672 0 0 1 -12.45667 12.45667 12.456672 12.456672 0 0 1 -12.45667-12.45667 12.456672 12.456672 0 0 1 12.45667-12.45667 12.456672 12.456672 0 0 1 12.45667 12.45667z" transform="translate(13.134901 51.555517)"/><path d="m597.45667 275.21933a12.456672 12.456672 0 0 1 -12.45667 12.45667 12.456672 12.456672 0 0 1 -12.45667-12.45667 12.456672 12.456672 0 0 1 12.45667-12.45667 12.456672 12.456672 0 0 1 12.45667 12.45667z" fill="#fff" transform="translate(13.134901 83.618989)"/><path d="m597.45667 275.21933a12.456672 12.456672 0 0 1 -12.45667 12.45667 12.456672 12.456672 0 0 1 -12.45667-12.45667 12.456672 12.456672 0 0 1 12.45667-12.45667 12.456672 12.456672 0 0 1 12.45667 12.45667z" fill="#fff" transform="translate(13.134901 115.68246)"/><path d="m597.45667 275.21933a12.456672 12.456672 0 0 1 -12.45667 12.45667 12.456672 12.456672 0 0 1 -12.45667-12.45667 12.456672 12.456672 0 0 1 12.45667-12.45667 12.456672 12.456672 0 0 1 12.45667 12.45667z" fill="#fff" transform="translate(13.134901 147.74593)"/><path d="m597.45667 275.21933a12.456672 12.456672 0 0 1 -12.45667 12.45667 12.456672 12.456672 0 0 1 -12.45667-12.45667 12.456672 12.456672 0 0 1 12.45667-12.45667 12.456672 12.456672 0 0 1 12.45667 12.45667z" transform="translate(13.134901 179.8094)"/><path d="m597.45667 275.21933a12.456672 12.456672 0 0 1 -12.45667 12.45667 12.456672 12.456672 0 0 1 -12.45667-12.45667 12.456672 12.456672 0 0 1 12.45667-12.45667 12.456672 12.456672 0 0 1 12.45667 12.45667z" fill="#fff" transform="translate(13.134901 211.87288)"/><path d="m597.45667 275.21933a12.456672 12.456672 0 0 1 -12.45667 12.45667 12.456672 12.456672 0 0 1 -12.45667-12.45667 12.456672 12.456672 0 0 1 12.45667-12.45667 12.456672 12.456672 0 0 1 12.45667 12.45667z" fill="#fff" transform="translate(13.134901 243.93635)"/><path d="m597.45667 275.21933a12.456672 12.456672 0 0 1 -12.45667 12.45667 12.456672 12.456672 0 0 1 -12.45667-12.45667 12.456672 12.456672 0 0 1 12.45667-12.45667 12.456672 12.456672 0 0 1 12.45667 12.45667z" transform="translate(13.134901 275.99982)"/><path d="m597.45667 275.21933a12.456672 12.456672 0 0 1 -12.45667 12.45667 12.456672 12.456672 0 0 1 -12.45667-12.45667 12.456672 12.456672 0 0 1 12.45667-12.45667 12.456672 12.456672 0 0 1 12.45667 12.45667z" fill="#fff" transform="translate(13.134901 308.06329)"/><path d="m597.45667 275.21933a12.456672 12.456672 0 0 1 -12.45667 12.45667 12.456672 12.456672 0 0 1 -12.45667-12.45667 12.456672 12.456672 0 0 1 12.45667-12.45667 12.456672 12.456672 0 0 1 12.45667 12.45667z" fill="#fff" transform="translate(13.134901 340.12677)"/><path d="m597.45667 275.21933a12.456672 12.456672 0 0 1 -12.45667 12.45667 12.456672 12.456672 0 0 1 -12.45667-12.45667 12.456672 12.456672 0 0 1 12.45667-12.45667 12.456672 12.456672 0 0 1 12.45667 12.45667z" fill="#fff" transform="translate(13.134901 372.19024)"/><path d="m597.45667 275.21933a12.456672 12.456672 0 0 1 -12.45667 12.45667 12.456672 12.456672 0 0 1 -12.45667-12.45667 12.456672 12.456672 0 0 1 12.45667-12.45667 12.456672 12.456672 0 0 1 12.45667 12.45667z" fill="#fff" transform="translate(13.134901 404.25371)"/><path d="m597.45667 275.21933a12.456672 12.456672 0 0 1 -12.45667 12.45667 12.456672 12.456672 0 0 1 -12.45667-12.45667 12.456672 12.456672 0 0 1 12.45667-12.45667 12.456672 12.456672 0 0 1 12.45667 12.45667z" transform="translate(13.134901 436.31718)"/><path d="m597.45667 275.21933a12.456672 12.456672 0 0 1 -12.45667 12.45667 12.456672 12.456672 0 0 1 -12.45667-12.45667 12.456672 12.456672 0 0 1 12.45667-12.45667 12.456672 12.456672 0 0 1 12.45667 12.45667z" fill="#fff" transform="translate(13.134901 468.38066)"/><path d="m597.45667 275.21933a12.456672 12.456672 0 0 1 -12.45667 12.45667 12.456672 12.456672 0 0 1 -12.45667-12.45667 12.456672 12.456672 0 0 1 12.45667-12.45667 12.456672 12.456672 0 0 1 12.45667 12.45667z" transform="translate(13.134901 500.44413)"/><path d="m597.45667 275.21933a12.456672 12.456672 0 0 1 -12.45667 12.45667 12.456672 12.456672 0 0 1 -12.45667-12.45667 12.456672 12.456672 0 0 1 12.45667-12.45667 12.456672 12.456672 0 0 1 12.45667 12.45667z" fill="#fff" transform="translate(13.639977 532.63387)"/><path d="m597.45667 275.21933a12.456672 12.456672 0 0 1 -12.45667 12.45667 12.456672 12.456672 0 0 1 -12.45667-12.45667 12.456672 12.456672 0 0 1 12.45667-12.45667 12.456672 12.456672 0 0 1 12.45667 12.45667z" fill="#fff" transform="translate(13.134901 564.57107)"/><path d="m597.45667 275.21933a12.456672 12.456672 0 0 1 -12.45667 12.45667 12.456672 12.456672 0 0 1 -12.45667-12.45667 12.456672 12.456672 0 0 1 12.45667-12.45667 12.456672 12.456672 0 0 1 12.45667 12.45667z" fill="#fff" transform="translate(13.134901 596.63455)"/><g font-family="Arial" letter-spacing="0" word-spacing="0"><text font-size="12" writing-mode="lr" x="552.97736" y="239.52107"><tspan font-family="Arial" font-size="12" writing-mode="lr" x="552.97736" y="239.52107">All Models</tspan></text><text font-size="9" font-weight="bold" text-anchor="middle" x="581.94287" y="897.888"><tspan font-family="Arial" font-size="9" font-weight="bold" text-anchor="middle" x="581.94287" y="897.888">40-pin</tspan><tspan font-family="Arial" font-size="9" font-weight="bold" text-anchor="middle" x="581.94287" y="909.138">models only</tspan></text><text font-size="12" x="562.14856" y="267.02191"><tspan x="562.14856" y="267.02191">1</tspan></text><text font-size="12" x="562.86292" y="266.66479"><tspan x="562.86292" y="266.66479">1</tspan></text><text font-size="12" x="562.99182" y="298.70889"><tspan x="562.99182" y="298.70889">3</tspan></text><text font-size="12" x="563.02991" y="330.75299"><tspan x="563.02991" y="330.75299">5</tspan></text><text font-size="12" x="562.98889" y="362.79709"><tspan x="562.98889" y="362.79709">7</tspan></text><text fill="#fff" font-size="12" x="563.01233" y="394.84119"><tspan x="563.01233" y="394.84119">9</tspan></text><text font-size="12" x="559.0426" y="426.98218"><tspan x="559.0426" y="426.98218">11</tspan></text><text font-size="12" x="558.96936" y="459.03976"><tspan x="558.96936" y="459.03976">13</tspan></text><text font-size="12" x="559.01331" y="491.02417"><tspan x="559.01331" y="491.02417">15</tspan></text><text font-size="12" x="559.00159" y="523.17255"><tspan x="559.00159" y="523.17255">17</tspan></text><text font-size="12" x="558.91077" y="555.23016"><tspan x="558.91077" y="555.23016">19</tspan></text><text font-size="12" x="559.26233" y="587.37854"><tspan x="559.26233" y="587.37854">21</tspan></text><text font-size="12" x="559.18909" y="619.35706"><tspan x="559.18909" y="619.35706">23</tspan></text><text fill="#fff" font-size="12" x="559.23303" y="651.42053"><tspan x="559.23303" y="651.42053">25</tspan></text><text font-size="12" x="559.47388" y="683.56897"><tspan x="559.47388" y="683.56897">27</tspan></text><text font-size="12" x="559.13049" y="715.54749"><tspan x="559.13049" y="715.54749">29</tspan></text><text font-size="12" x="559.24475" y="747.61096"><tspan x="559.24475" y="747.61096">31</tspan></text><text font-size="12" x="559.17151" y="779.67444"><tspan x="559.17151" y="779.67444">33</tspan></text><text font-size="12" x="559.21545" y="811.73792"><tspan x="559.21545" y="811.73792">35</tspan></text><text font-size="12" x="559.20374" y="843.80139"><tspan x="559.20374" y="843.80139">37</tspan></text><text fill="#fff" font-size="12" x="559.11292" y="875.86487"><tspan x="559.11292" y="875.86487">39</tspan></text><text font-size="12" x="595.19299" y="266.7439"><tspan x="595.19299" y="266.7439">2</tspan></text><text font-size="12" x="595.07581" y="298.70889"><tspan x="595.07581" y="298.70889">4</tspan></text><text fill="#fff" font-size="12" x="594.99084" y="330.75299"><tspan x="594.99084" y="330.75299">6</tspan></text><text font-size="12" x="595.03479" y="362.79709"><tspan x="595.03479" y="362.79709">8</tspan></text><text font-size="12" x="590.95081" y="394.84119"><tspan x="590.95081" y="394.84119">10</tspan></text><text font-size="12" x="591.15295" y="427.06128"><tspan x="591.15295" y="427.06128">12</tspan></text><text fill="#fff" font-size="12" x="590.88928" y="459.04562"><tspan x="590.88928" y="459.04562">14</tspan></text><text font-size="12" x="590.9303" y="491.10327"><tspan x="590.9303" y="491.10327">16</tspan></text><text font-size="12" x="590.96252" y="523.16669"><tspan x="590.96252" y="523.16669">18</tspan></text><text fill="#fff" font-size="12" x="591.17053" y="555.23016"><tspan x="591.17053" y="555.23016">20</tspan></text><text font-size="12" x="591.37268" y="587.37854"><tspan x="591.37268" y="587.37854">22</tspan></text><text font-size="12" x="591.10901" y="619.44202"><tspan x="591.10901" y="619.44202">24</tspan></text><text font-size="12" x="591.15002" y="651.42053"><tspan x="591.15002" y="651.42053">26</tspan></text><text font-size="12" x="591.18225" y="683.48401"><tspan x="591.18225" y="683.48401">28</tspan></text><text fill="#fff" font-size="12" x="591.15295" y="715.54749"><tspan x="591.15295" y="715.54749">30</tspan></text><text font-size="12" x="591.3551" y="747.61096"><tspan x="591.3551" y="747.61096">32</tspan></text><text fill="#fff" font-size="12" x="591.09143" y="779.67444"><tspan x="591.09143" y="779.67444">34</tspan></text><text font-size="12" x="591.63751" y="811.8642"><tspan x="591.63751" y="811.8642">36</tspan></text><text font-size="12" x="591.16467" y="843.80139"><tspan x="591.16467" y="843.80139">38</tspan></text><text font-size="12" x="591.31702" y="875.86487"><tspan x="591.31702" y="875.86487">40</tspan></text><text font-size="10" font-weight="bold" x="553.51929" y="937.5365"><tspan x="553.51929" y="937.5365">USB Ports</tspan></text></g><g fill="#f00" transform="translate(137.18066 86.368043)"><path d="m411.02472 836.51721v23.75h4v-23.75z"/><path d="m413.02613 869.49181-8-13.84h16z" fill-rule="evenodd"/></g><g fill="#f00" transform="translate(200.55377 86.368043)"><path d="m411.02472 836.51721v23.75h4v-23.75z"/><path d="m413.02613 869.49181-8-13.84h16z" fill-rule="evenodd"/></g><circle cx="566.071429" cy="390.87933" fill="none" r="13.214286" stroke="#fff" stroke-linecap="round" stroke-linejoin="round" stroke-width="4"/><circle cx="598.182144" cy="326.763618" fill="none" r="13.214286" stroke="#fff" stroke-linecap="round" stroke-linejoin="round" stroke-width="4"/><circle cx="566.071429" cy="262.647902" fill="none" r="13.214286" stroke="#f79526" stroke-linecap="round" stroke-linejoin="round" stroke-width="4"/><circle cx="566.071429" cy="647.34219" fill="none" r="13.214286" stroke="#fff" stroke-linecap="round" stroke-linejoin="round" stroke-width="4"/><circle cx="566.071429" cy="807.63148" fill="none" r="13.214286" stroke="#35cd06" stroke-linecap="round" stroke-linejoin="round" stroke-width="4"/><circle cx="566.071429" cy="839.68934" fill="none" r="13.214286" stroke="#35cd06" stroke-linecap="round" stroke-linejoin="round" stroke-width="4"/><circle cx="566.071429" cy="871.7472" fill="none" r="13.214286" stroke="#fff" stroke-linecap="round" stroke-linejoin="round" stroke-width="4"/><circle cx="598.182144" cy="454.99505" fill="none" r="13.214286" stroke="#fff" stroke-linecap="round" stroke-linejoin="round" stroke-width="4"/><circle cx="598.182144" cy="551.16862" fill="none" r="13.214286" stroke="#fff" stroke-linecap="round" stroke-linejoin="round" stroke-width="4"/><circle cx="598.182144" cy="711.45791" fill="none" r="13.214286" stroke="#fff" stroke-linecap="round" stroke-linejoin="round" stroke-width="4"/><circle cx="598.182144" cy="775.57363" fill="none" r="13.214286" stroke="#fff" stroke-linecap="round" stroke-linejoin="round" stroke-width="4"/><circle cx="598.182144" cy="807.63148" fill="none" r="13.214286" stroke="#35cd06" stroke-linecap="round" stroke-linejoin="round" stroke-width="4"/><circle cx="598.182144" cy="839.68934" fill="none" r="13.214286" stroke="#35cd06" stroke-linecap="round" stroke-linejoin="round" stroke-width="4"/><circle cx="598.182144" cy="871.7472" fill="none" r="13.214286" stroke="#35cd06" stroke-linecap="round" stroke-linejoin="round" stroke-width="4"/><circle cx="598.182144" cy="358.821476" fill="none" r="13.214286" stroke="#9916fe" stroke-linecap="round" stroke-linejoin="round" stroke-width="4"/><circle cx="598.182144" cy="390.87933" fill="none" r="13.214286" stroke="#9916fe" stroke-linecap="round" stroke-linejoin="round" stroke-width="4"/><circle cx="566.071429" cy="294.70576" fill="none" r="13.214286" stroke="#f80dfe" stroke-linecap="round" stroke-linejoin="round" stroke-width="4"/><circle cx="566.071429" cy="326.763618" fill="none" r="13.214286" stroke="#f80dfe" stroke-linecap="round" stroke-linejoin="round" stroke-width="4"/><circle cx="598.182144" cy="487.0529" fill="none" r="13.214286" stroke="#35cd06" stroke-linecap="round" stroke-linejoin="round" stroke-width="4"/><circle cx="598.182144" cy="519.11076" fill="none" r="13.214286" stroke="#35cd06" stroke-linecap="round" stroke-linejoin="round" stroke-width="4"/><circle cx="566.071429" cy="487.0529" fill="none" r="13.214286" stroke="#35cd06" stroke-linecap="round" stroke-linejoin="round" stroke-width="4"/><circle cx="566.071429" cy="454.99505" fill="none" r="13.214286" stroke="#35cd06" stroke-linecap="round" stroke-linejoin="round" stroke-width="4"/><circle cx="598.182144" cy="422.93719" fill="none" r="13.214286" stroke="#35cd06" stroke-linecap="round" stroke-linejoin="round" stroke-width="4"/><circle cx="566.071429" cy="422.93719" fill="none" r="13.214286" stroke="#35cd06" stroke-linecap="round" stroke-linejoin="round" stroke-width="4"/><circle cx="566.071429" cy="358.821476" fill="none" r="13.214286" stroke="#35cd06" stroke-linecap="round" stroke-linejoin="round" stroke-width="4"/><circle cx="566.071429" cy="711.45791" fill="none" r="13.214286" stroke="#35cd06" stroke-linecap="round" stroke-linejoin="round" stroke-width="4"/><circle cx="566.071429" cy="743.51577" fill="none" r="13.214286" stroke="#35cd06" stroke-linecap="round" stroke-linejoin="round" stroke-width="4"/><circle cx="566.071429" cy="775.57363" fill="none" r="13.214286" stroke="#35cd06" stroke-linecap="round" stroke-linejoin="round" stroke-width="4"/><circle cx="598.182144" cy="583.22648" fill="none" r="13.214286" stroke="#35cd06" stroke-linecap="round" stroke-linejoin="round" stroke-width="4"/><circle cx="598.182144" cy="743.51577" fill="none" r="13.214286" stroke="#35cd06" stroke-linecap="round" stroke-linejoin="round" stroke-width="4"/><circle cx="566.071429" cy="519.11076" fill="none" r="13.214286" stroke="#f79526" stroke-linecap="round" stroke-linejoin="round" stroke-width="4"/><circle cx="566.071429" cy="551.16862" fill="none" r="13.214286" stroke="#4815fe" stroke-linecap="round" stroke-linejoin="round" stroke-width="4"/><circle cx="566.071429" cy="583.22648" fill="none" r="13.214286" stroke="#4815fe" stroke-linecap="round" stroke-linejoin="round" stroke-width="4"/><circle cx="566.071429" cy="615.28434" fill="none" r="13.214286" stroke="#4815fe" stroke-linecap="round" stroke-linejoin="round" stroke-width="4"/><circle cx="598.182144" cy="615.28434" fill="none" r="13.214286" stroke="#4815fe" stroke-linecap="round" stroke-linejoin="round" stroke-width="4"/><circle cx="598.182144" cy="647.34219" fill="none" r="13.214286" stroke="#4815fe" stroke-linecap="round" stroke-linejoin="round" stroke-width="4"/><circle cx="598.182144" cy="262.647902" fill="none" r="13.214286" stroke="#f6343c" stroke-linecap="round" stroke-linejoin="round" stroke-width="4"/><circle cx="598.182144" cy="294.70576" fill="none" r="13.214286" stroke="#f6343c" stroke-linecap="round" stroke-linejoin="round" stroke-width="4"/><circle cx="566.071429" cy="679.40005" fill="none" r="13.214286" stroke="#fbff24" stroke-linecap="round" stroke-linejoin="round" stroke-width="4"/><circle cx="598.182144" cy="679.40005" fill="none" r="13.214286" stroke="#fbff24" stroke-linecap="round" stroke-linejoin="round" stroke-width="4"/></g></svg>